# This file uses centimeters as units for non-parametric coordinates.

v 0.029410 -0.009556 2.858813
v 0.025018 -0.018176 2.858813
v 0.018176 -0.025018 2.858813
v 0.009556 -0.029410 2.858813
v 0.000000 -0.030924 2.858813
v -0.009556 -0.029410 2.858813
v -0.018176 -0.025018 2.858813
v -0.025018 -0.018176 2.858813
v -0.029410 -0.009556 2.858813
v -0.030924 -0.000000 2.858813
v -0.029410 0.009556 2.858813
v -0.025018 0.018176 2.858813
v -0.018176 0.025018 2.858813
v -0.009556 0.029410 2.858813
v -0.000000 0.030924 2.858813
v 0.009556 0.029410 2.858813
v 0.018176 0.025018 2.858813
v 0.025018 0.018176 2.858813
v 0.029410 0.009556 2.858813
v 0.030924 -0.000000 2.858813
v 0.009741 -0.003165 -2.858813
v 0.008286 -0.006020 -2.858813
v 0.006020 -0.008286 -2.858813
v 0.003165 -0.009741 -2.858813
v -0.000000 -0.010242 -2.858813
v -0.003165 -0.009741 -2.858813
v -0.006020 -0.008286 -2.858813
v -0.008286 -0.006020 -2.858813
v -0.009741 -0.003165 -2.858813
v -0.010242 -0.000000 -2.858813
v -0.009741 0.003165 -2.858813
v -0.008286 0.006020 -2.858813
v -0.006020 0.008286 -2.858813
v -0.003165 0.009741 -2.858813
v -0.000000 0.010242 -2.858813
v 0.003165 0.009741 -2.858813
v 0.006020 0.008286 -2.858813
v 0.008286 0.006020 -2.858813
v 0.009741 0.003165 -2.858813
v 0.010242 -0.000000 -2.858813
v 0.000000 -0.000000 2.858813
v -0.000000 -0.000000 -2.858813
v 0.029410 0.009556 -2.429241
v 0.025018 0.018176 -2.429241
v 0.018176 0.025018 -2.429241
v 0.009556 0.029410 -2.429241
v -0.000000 0.030924 -2.429241
v -0.009556 0.029410 -2.429241
v -0.018176 0.025018 -2.429241
v -0.025018 0.018176 -2.429241
v -0.029410 0.009556 -2.429241
v -0.030924 0.000000 -2.429241
v -0.029410 -0.009556 -2.429241
v -0.025018 -0.018176 -2.429241
v -0.018176 -0.025018 -2.429241
v -0.009556 -0.029410 -2.429241
v 0.000000 -0.030924 -2.429241
v 0.009556 -0.029410 -2.429241
v 0.018176 -0.025018 -2.429241
v 0.025018 -0.018176 -2.429241
v 0.029410 -0.009556 -2.429241
v 0.030924 0.000000 -2.429241
vt 0.619952 0.000000
vt 0.677539 0.000000
vt 0.677539 0.382112
vt 0.619952 0.382112
vt 0.723240 0.000000
vt 0.723240 0.382112
vt 0.556117 0.000000
vt 0.556117 0.382112
vt 0.492281 0.000000
vt 0.492281 0.382112
vt 0.434694 0.000000
vt 0.434694 0.382112
vt 0.388993 0.000000
vt 0.388993 0.382112
vt 0.764032 0.427813
vt 0.764032 0.485400
vt 0.381920 0.485400
vt 0.381920 0.427813
vt 0.764032 0.549236
vt 0.381920 0.549236
vt 0.764032 0.382112
vt 0.381920 0.382112
vt 0.764032 0.613071
vt 0.381920 0.613071
vt 0.764032 0.670658
vt 0.381920 0.670658
vt 0.764032 0.716359
vt 0.381920 0.716359
vt 0.000000 0.594525
vt 0.003140 0.534604
vt 0.190736 0.574478
vt 0.024644 0.478585
vt 0.015530 0.652485
vt 0.062406 0.431953
vt 0.048211 0.702808
vt 0.112729 0.399273
vt 0.094843 0.740570
vt 0.170689 0.383743
vt 0.150861 0.762074
vt 0.230610 0.386883
vt 0.210783 0.765214
vt 0.286629 0.408387
vt 0.268742 0.749684
vt 0.333261 0.446148
vt 0.319066 0.717003
vt 0.365941 0.496472
vt 0.356828 0.670372
vt 0.381471 0.554431
vt 0.378331 0.614353
vt 0.145153 0.235878
vt 0.134206 0.219022
vt 0.192893 0.192893
vt 0.048756 0.322674
vt 0.015706 0.271781
vt 0.129004 0.199608
vt 0.160772 0.248527
vt 0.000000 0.213167
vt 0.095915 0.360863
vt 0.130056 0.179536
vt 0.179536 0.255729
vt 0.003176 0.152567
vt 0.152567 0.382609
vt 0.137259 0.160773
vt 0.199608 0.256781
vt 0.024923 0.095915
vt 0.213166 0.385785
vt 0.149907 0.145153
vt 0.219021 0.251580
vt 0.063111 0.048756
vt 0.271781 0.370079
vt 0.166764 0.134206
vt 0.235878 0.240633
vt 0.114004 0.015706
vt 0.322674 0.337029
vt 0.186178 0.129004
vt 0.248526 0.225013
vt 0.172619 0.000000
vt 0.360863 0.289870
vt 0.206249 0.130056
vt 0.255729 0.206249
vt 0.233218 0.003176
vt 0.382609 0.233218
vt 0.225013 0.137259
vt 0.256782 0.186178
vt 0.289870 0.024923
vt 0.385785 0.172619
vt 0.240633 0.149907
vt 0.251580 0.166764
vt 0.337029 0.063111
vt 0.370079 0.114004
vt 0.957564 0.366028
vt 0.902401 0.366028
vt 0.902401 0.000000
vt 0.957564 0.000000
vt 0.841253 0.366028
vt 0.841253 0.000000
vt 0.780104 0.366028
vt 0.780104 0.000000
vt 0.724941 0.366028
vt 0.724941 0.000000
vt 0.767377 0.366028
vt 0.822540 0.366028
vt 0.822540 0.732056
vt 0.767377 0.732056
vt 0.883688 0.366028
vt 0.883688 0.732056
vt 0.944837 0.366028
vt 0.944837 0.732056
vt 1.000000 0.366028
vt 1.000000 0.732056
vn 0.951057 -0.309016 0.000000
vn 0.809017 -0.587785 0.000000
vn 0.809015 -0.587784 -0.002458
vn 0.951054 -0.309015 -0.002458
vn 0.587785 -0.809017 0.000000
vn 0.587783 -0.809015 -0.002458
vn 0.309017 -0.951057 0.000000
vn 0.309016 -0.951054 -0.002458
vn -0.000000 -1.000000 0.000000
vn -0.000000 -0.999997 -0.002458
vn -0.309017 -0.951057 0.000000
vn -0.309016 -0.951054 -0.002458
vn -0.587785 -0.809017 0.000000
vn -0.587784 -0.809015 -0.002458
vn -0.809017 -0.587785 0.000000
vn -0.809015 -0.587783 -0.002458
vn -0.951057 -0.309017 0.000000
vn -0.951054 -0.309016 -0.002458
vn -1.000000 0.000000 0.000000
vn -0.999997 0.000000 -0.002458
vn -0.951057 0.309017 0.000000
vn -0.951054 0.309016 -0.002458
vn -0.809017 0.587785 0.000000
vn -0.809014 0.587784 -0.002458
vn -0.587785 0.809017 0.000000
vn -0.587783 0.809015 -0.002458
vn -0.309017 0.951057 0.000000
vn -0.309016 0.951054 -0.002458
vn 0.000000 1.000000 0.000000
vn 0.000000 0.999997 -0.002458
vn 0.309017 0.951056 0.000000
vn 0.309016 0.951054 -0.002458
vn 0.587785 0.809017 0.000000
vn 0.587784 0.809015 -0.002458
vn 0.809017 0.587785 0.000000
vn 0.809015 0.587783 -0.002458
vn 0.951057 0.309017 0.000000
vn 0.951054 0.309016 -0.002458
vn 1.000000 0.000001 0.000000
vn 0.999997 0.000001 -0.002458
vn -0.000013 0.000000 1.000000
vn 0.000013 0.000000 1.000000
vn 0.000000 0.000000 1.000000
vn -0.000000 0.000000 1.000000
vn 0.000000 0.000000 1.000000
vn -0.000025 0.000000 1.000000
vn 0.000000 0.000000 1.000000
vn 0.000000 0.000000 1.000000
vn 0.000006 0.000000 1.000000
vn 0.000006 0.000000 1.000000
vn 0.000000 0.000000 1.000000
vn 0.000000 0.000000 1.000000
vn 0.000000 0.000000 1.000000
vn -0.000025 0.000000 1.000000
vn -0.000000 0.000000 1.000000
vn 0.000025 0.000000 1.000000
vn 0.000025 0.000000 1.000000
vn 0.000013 0.000000 1.000000
vn -0.000019 0.000000 1.000000
vn -0.000006 0.000000 1.000000
vn 0.000000 0.000000 1.000000
vn 0.000000 0.000000 -1.000000
vn 0.000000 0.000000 -1.000000
vn 0.000003 0.000000 -1.000000
vn 0.000000 0.000000 -1.000000
vn -0.000057 0.000000 -1.000000
vn -0.000057 0.000000 -1.000000
vn 0.000000 0.000000 -1.000000
vn 0.000000 0.000000 -1.000000
vn 0.000000 0.000000 -1.000000
vn 0.000000 0.000000 -1.000000
vn 0.000000 0.000000 -1.000000
vn 0.000029 0.000000 -1.000000
vn 0.000029 0.000000 -1.000000
vn 0.000000 0.000000 -1.000000
vn 0.000000 0.000000 -1.000000
vn 0.000000 0.000000 -1.000000
vn 0.000057 0.000000 -1.000000
vn 0.000057 0.000000 -1.000000
vn 0.000000 0.000000 -1.000000
vn 0.000000 0.000000 -1.000000
vn 0.000000 0.000000 -1.000000
vn 0.949956 0.308660 -0.048088
vn 0.808081 0.587105 -0.048088
vn 0.587104 0.808082 -0.048088
vn 0.308658 0.949957 -0.048088
vn 0.000002 0.998843 -0.048088
vn -0.308656 0.949957 -0.048088
vn -0.587104 0.808082 -0.048088
vn -0.808082 0.587104 -0.048088
vn -0.949957 0.308658 -0.048088
vn -0.998843 0.000000 -0.048088
vn -0.949956 -0.308660 -0.048088
vn -0.808082 -0.587105 -0.048088
vn -0.587104 -0.808082 -0.048088
vn -0.308658 -0.949957 -0.048088
vn -0.000002 -0.998843 -0.048088
vn 0.308656 -0.949957 -0.048088
vn 0.587104 -0.808082 -0.048088
vn 0.808082 -0.587104 -0.048088
vn 0.949957 -0.308658 -0.048088
vn 0.998843 0.000001 -0.048088
s 1
f 1/1/1 2/2/2 60/3/3 61/4/4
f 2/2/2 3/5/5 59/6/6 60/3/3
f 3/91/5 4/92/7 58/93/8 59/94/6
f 4/92/7 5/95/9 57/96/10 58/93/8
f 5/95/9 6/97/11 56/98/12 57/96/10
f 6/97/11 7/99/13 55/100/14 56/98/12
f 7/21/13 8/15/15 54/18/16 55/22/14
f 8/15/15 9/16/17 53/17/18 54/18/16
f 9/16/17 10/19/19 52/20/20 53/17/18
f 10/19/19 11/23/21 51/24/22 52/20/20
f 11/23/21 12/25/23 50/26/24 51/24/22
f 12/25/23 13/27/25 49/28/26 50/26/24
f 13/101/25 14/102/27 48/103/28 49/104/26
f 14/102/27 15/105/29 47/106/30 48/103/28
f 15/105/29 16/107/31 46/108/32 47/106/30
f 16/107/31 17/109/33 45/110/34 46/108/32
f 17/13/33 18/11/35 44/12/36 45/14/34
f 18/11/35 19/9/37 43/10/38 44/12/36
f 19/9/37 20/7/39 62/8/40 43/10/38
f 20/7/39 1/1/1 61/4/4 62/8/40
s 2
f 2/29/41 1/30/42 41/31/43
f 3/33/44 2/29/41 41/31/43
f 4/35/45 3/33/44 41/31/43
f 5/37/46 4/35/45 41/31/43
f 6/39/47 5/37/46 41/31/43
f 7/41/48 6/39/47 41/31/43
f 8/43/49 7/41/48 41/31/43
f 9/45/50 8/43/49 41/31/43
f 10/47/51 9/45/50 41/31/43
f 11/49/52 10/47/51 41/31/43
f 12/48/53 11/49/52 41/31/43
f 13/46/54 12/48/53 41/31/43
f 14/44/55 13/46/54 41/31/43
f 15/42/56 14/44/55 41/31/43
f 16/40/57 15/42/56 41/31/43
f 17/38/58 16/40/57 41/31/43
f 18/36/59 17/38/58 41/31/43
f 19/34/60 18/36/59 41/31/43
f 20/32/61 19/34/60 41/31/43
f 1/30/42 20/32/61 41/31/43
s 3
f 21/50/62 22/51/63 42/52/64
f 22/51/63 23/55/65 42/52/64
f 23/55/65 24/59/66 42/52/64
f 24/59/66 25/63/67 42/52/64
f 25/63/67 26/67/68 42/52/64
f 26/67/68 27/71/69 42/52/64
f 27/71/69 28/75/70 42/52/64
f 28/75/70 29/79/71 42/52/64
f 29/79/71 30/83/72 42/52/64
f 30/83/72 31/87/73 42/52/64
f 31/87/73 32/88/74 42/52/64
f 32/88/74 33/84/75 42/52/64
f 33/84/75 34/80/76 42/52/64
f 34/80/76 35/76/77 42/52/64
f 35/76/77 36/72/78 42/52/64
f 36/72/78 37/68/79 42/52/64
f 37/68/79 38/64/80 42/52/64
f 38/64/80 39/60/81 42/52/64
f 39/60/81 40/56/82 42/52/64
f 40/56/82 21/50/62 42/52/64
s 1
f 44/66/36 43/62/38 39/60/83 38/64/84
f 45/70/34 44/66/36 38/64/84 37/68/85
f 46/74/32 45/70/34 37/68/85 36/72/86
f 47/78/30 46/74/32 36/72/86 35/76/87
f 48/82/28 47/78/30 35/76/87 34/80/88
f 49/86/26 48/82/28 34/80/88 33/84/89
f 50/90/24 49/86/26 33/84/89 32/88/90
f 51/89/22 50/90/24 32/88/90 31/87/91
f 52/85/20 51/89/22 31/87/91 30/83/92
f 53/81/18 52/85/20 30/83/92 29/79/93
f 54/77/16 53/81/18 29/79/93 28/75/94
f 55/73/14 54/77/16 28/75/94 27/71/95
f 56/69/12 55/73/14 27/71/95 26/67/96
f 57/65/10 56/69/12 26/67/96 25/63/97
f 58/61/8 57/65/10 25/63/97 24/59/98
f 59/57/6 58/61/8 24/59/98 23/55/99
f 60/54/3 59/57/6 23/55/99 22/51/100
f 61/53/4 60/54/3 22/51/100 21/50/101
f 62/58/40 61/53/4 21/50/101 40/56/102
f 43/62/38 62/58/40 40/56/102 39/60/83
