# This file uses centimeters as units for non-parametric coordinates.

mtllib teaposeSign.mtl
g default
v -3.461301 6.582368 4.916782
v 2.388037 6.582368 4.916782
v -3.461301 7.818909 4.879700
v 2.388037 7.818909 4.879700
v -3.461301 7.777505 4.794306
v 2.388037 7.777505 4.794306
v -3.461301 6.618580 4.829061
v 2.388037 6.618580 4.829061
vt 0.001890 0.668528
vt 0.331370 0.668528
vt 0.331370 0.998008
vt 0.001890 0.998008
vt 0.338705 0.668528
vt 0.668185 0.668528
vt 0.668185 0.998008
vt 0.338705 0.998008
vt 0.338705 0.331472
vt 0.338705 0.001992
vt 0.668185 0.001992
vt 0.668185 0.331472
vt 0.282356 0.335260
vt 0.611836 0.335260
vt 0.611836 0.664740
vt 0.282356 0.664740
vt 0.001890 0.001992
vt 0.331370 0.001992
vt 0.331370 0.331472
vt 0.001890 0.331472
vt 0.617659 0.664740
vt 0.617659 0.335260
vt 0.947139 0.335260
vt 0.947139 0.664740
vn 0.000000 0.029975 0.999551
vn 0.000000 0.029975 0.999551
vn 0.000000 0.029975 0.999551
vn 0.000000 0.029975 0.999551
vn 0.000000 0.899811 -0.436279
vn 0.000000 0.899811 -0.436279
vn 0.000000 0.899811 -0.436279
vn 0.000000 0.899811 -0.436279
vn 0.000000 -0.029975 -0.999551
vn 0.000000 -0.029975 -0.999551
vn 0.000000 -0.029975 -0.999551
vn 0.000000 -0.029975 -0.999551
vn 0.000000 -0.924338 -0.381575
vn 0.000000 -0.924338 -0.381575
vn 0.000000 -0.924338 -0.381575
vn 0.000000 -0.924338 -0.381575
vn 1.000000 0.000000 0.000000
vn 1.000000 0.000000 0.000000
vn 1.000000 0.000000 0.000000
vn 1.000000 0.000000 0.000000
vn -1.000000 0.000000 0.000000
vn -1.000000 0.000000 0.000000
vn -1.000000 0.000000 0.000000
vn -1.000000 0.000000 0.000000
s off
g teaposeSign1
usemtl PxrSurface2SG
f 1/17/1 2/18/2 4/19/3 3/20/4
f 3/9/5 4/10/6 6/11/7 5/12/8
f 5/21/9 6/22/10 8/23/11 7/24/12
f 7/13/13 8/14/14 2/15/15 1/16/16
f 2/1/17 8/2/18 6/3/19 4/4/20
f 7/5/21 1/6/22 3/7/23 5/8/24
