# This file uses centimeters as units for non-parametric coordinates.

mtllib postcard.mtl
g default
v -2.867532 0.030099 0.001820
v -1.433766 0.030099 0.274836
v 0.000000 0.030099 0.001820
v 1.433766 0.030099 0.000000
v 2.867532 0.030099 0.000000
v -2.867532 2.227733 0.000000
v -1.433766 2.227733 0.000000
v 0.001651 2.227733 0.001703
v 1.670883 2.227733 0.244568
v 2.869183 2.227733 0.001703
v -2.867532 4.425366 0.000000
v -1.433766 4.425366 0.000000
v 0.000000 4.425366 0.001274
v 1.433766 4.425366 0.184321
v 2.867532 4.425366 0.273782
v -2.867532 6.622999 0.005181
v -1.433766 6.622999 0.670993
v 0.000000 6.622999 0.005181
v 1.433766 6.622999 0.000000
v 2.867532 6.622999 0.000000
v -2.867532 8.820633 0.286832
v -1.433766 8.820633 0.001997
v 0.000000 8.820633 0.000000
v 1.433766 8.820633 -0.001389
v 2.867532 8.820633 -0.199478
vt 0.000000 0.000000
vt 0.250000 0.000000
vt 0.500000 0.000000
vt 0.750000 0.000000
vt 1.000000 0.000000
vt 0.000000 0.250000
vt 0.250000 0.250000
vt 0.500000 0.250000
vt 0.750000 0.250000
vt 1.000000 0.250000
vt 0.000000 0.500000
vt 0.250000 0.500000
vt 0.500000 0.500000
vt 0.750000 0.500000
vt 1.000000 0.500000
vt 0.000000 0.750000
vt 0.250000 0.750000
vt 0.500000 0.750000
vt 0.750000 0.750000
vt 1.000000 0.750000
vt 0.000000 1.000000
vt 0.250000 1.000000
vt 0.500000 1.000000
vt 0.750000 1.000000
vt 1.000000 1.000000
vn -0.094595 0.062538 0.993550
vn -0.000296 0.062609 0.998038
vn -0.000409 0.031375 0.999508
vn -0.047527 0.031421 0.998376
vn 0.005131 0.003374 0.999981
vn -0.033411 0.003317 0.999436
vn -0.008347 -0.055245 0.998438
vn -0.014221 -0.038022 0.999176
vn 0.091712 -0.060673 0.993935
vn 0.075047 -0.052854 0.995778
vn -0.000376 -0.076585 0.997063
vn -0.114985 -0.076186 0.990441
vn 0.004962 -0.025844 0.999654
vn -0.052035 0.028816 0.998229
vn 0.011637 0.032746 0.999396
vn 0.024887 -0.016452 0.999555
vn -0.180027 -0.033739 0.983083
vn 0.100729 0.010542 0.994858
vn -0.005455 0.048061 0.998830
vn 0.018885 0.074740 0.997024
vn 0.051786 0.120113 0.991409
vn -0.131202 0.087029 0.987528
vn 0.116440 0.076685 0.990233
vn 0.035654 0.023577 0.999086
vn 0.068844 0.045545 0.996587
s 1
g pPlane1
usemtl initialShadingGroup
f 1/1/1 2/2/2 7/7/3 6/6/4
f 2/2/2 3/3/5 8/8/6 7/7/3
f 3/3/5 4/4/7 9/9/8 8/8/6
f 4/4/7 5/5/9 10/10/10 9/9/8
f 6/6/4 7/7/3 12/12/11 11/11/12
f 7/7/3 8/8/6 13/13/13 12/12/11
f 8/8/6 9/9/8 14/14/14 13/13/13
f 9/9/8 10/10/10 15/15/15 14/14/14
f 11/11/12 12/12/11 17/17/16 16/16/17
f 12/12/11 13/13/13 18/18/18 17/17/16
f 13/13/13 14/14/14 19/19/19 18/18/18
f 14/14/14 15/15/15 20/20/20 19/19/19
f 16/16/17 17/17/16 22/22/21 21/21/22
f 17/17/16 18/18/18 23/23/23 22/22/21
f 18/18/18 19/19/19 24/24/24 23/23/23
f 19/19/19 20/20/20 25/25/25 24/24/24
