# This file uses centimeters as units for non-parametric coordinates.

mtllib stonebench.mtl
g default
v -2.138761 1.347262 0.562658
v -2.360357 1.257156 0.783664
v -2.360357 1.257156 -0.909179
v -2.138761 1.347262 -0.688173
v 2.141141 1.319444 0.562658
v 2.361548 1.226465 0.783664
v 2.141141 1.319444 -0.688173
v 2.361547 1.226465 -0.909179
v -2.407922 0.982756 0.829445
v -2.453405 1.028833 0.875226
v 2.405542 0.951470 0.829445
v 2.451620 0.996952 0.875226
v -2.407922 0.982756 -0.954960
v -2.453405 1.028833 -1.000741
v 2.405542 0.951470 -0.954960
v 2.451620 0.996952 -1.000741
v -2.452740 1.131153 0.875226
v -2.427576 1.190806 0.850449
v -2.452740 1.131153 -1.000741
v -2.427576 1.190806 -0.975965
v 2.452285 1.099272 0.875226
v 2.427898 1.159248 0.850449
v 2.452284 1.099272 -1.000741
v 2.427897 1.159247 -0.975965
vt 0.983032 0.336097
vt 0.990104 0.339034
vt 0.990104 0.555563
vt 0.983032 0.558500
vt 0.997970 0.346952
vt 0.997970 0.547645
vt 0.970902 0.558500
vt 0.970902 0.336097
vt 0.965439 0.341524
vt 0.965439 0.553073
vt 0.972484 0.330660
vt 0.965373 0.333597
vt 0.965373 0.111194
vt 0.972484 0.114131
vt 0.953243 0.333597
vt 0.953243 0.111194
vt 0.980453 0.322742
vt 0.980453 0.122049
vt 0.947851 0.328169
vt 0.947851 0.116621
vt 0.317525 0.543313
vt 0.291324 0.569585
vt 0.291324 0.009784
vt 0.317525 0.035914
vt 0.465816 0.543313
vt 0.492017 0.569585
vt 0.283406 0.577554
vt 0.283406 0.001918
vt 0.492017 0.009784
vt 0.465816 0.035914
vt 0.499935 0.577554
vt 0.499935 0.001918
vt 0.062139 0.578036
vt 0.062139 0.007380
vt 0.273687 0.007380
vt 0.273687 0.578036
vt 0.056711 0.583428
vt 0.056711 0.001918
vt 0.279115 0.583428
vt 0.279115 0.001918
vt 0.024974 0.582399
vt 0.017902 0.585382
vt 0.014122 0.003872
vt 0.021233 0.006763
vt 0.005772 0.585461
vt 0.001992 0.003951
vt 0.036424 0.583428
vt 0.029352 0.580445
vt 0.033093 0.004809
vt 0.040203 0.001918
vt 0.052334 0.001996
vt 0.048554 0.583507
vn -0.020641 0.996342 0.082923
vn 0.005365 0.825481 0.564404
vn 0.005365 0.825481 0.564404
vn 0.033590 0.995990 0.082923
vn -0.568534 0.822660 0.000000
vn -0.020641 0.996342 -0.082923
vn -0.568534 0.822659 0.000000
vn 0.005365 0.825481 -0.564405
vn 0.033590 0.995990 -0.082923
vn 0.005365 0.825481 -0.564405
vn 0.579180 0.815200 -0.000000
vn 0.579180 0.815200 -0.000000
vn -0.711687 -0.702497 -0.000000
vn -0.711687 -0.702497 -0.000000
vn -0.711687 -0.702497 -0.000000
vn -0.711687 -0.702497 -0.000000
vn -0.004596 -0.707090 0.707108
vn -0.004596 -0.707090 0.707108
vn -0.004596 -0.707090 0.707108
vn -0.004596 -0.707090 0.707108
vn 0.702494 -0.711689 0.000000
vn 0.702494 -0.711689 0.000000
vn 0.702494 -0.711689 0.000000
vn 0.702494 -0.711689 0.000000
vn -0.004596 -0.707092 -0.707107
vn -0.004596 -0.707092 -0.707107
vn -0.004596 -0.707092 -0.707107
vn -0.004596 -0.707092 -0.707107
vn -0.991181 0.132518 0.000000
vn -0.848178 0.529712 0.000000
vn -0.848178 0.529712 0.000000
vn -0.991181 0.132518 0.000000
vn 0.003424 0.526774 0.849998
vn 0.000824 0.126784 0.991930
vn 0.000824 0.126783 0.991930
vn 0.003424 0.526775 0.849998
vn 0.000824 0.126784 -0.991930
vn 0.003424 0.526776 -0.849997
vn 0.003424 0.526776 -0.849997
vn 0.000824 0.126784 -0.991930
vn 0.854994 0.518638 -0.000000
vn 0.992819 0.119627 -0.000000
vn 0.992819 0.119627 -0.000000
vn 0.854994 0.518638 -0.000000
vn -0.006500 -0.999979 -0.000000
vn -0.006500 -0.999979 -0.000000
vn -0.006500 -0.999979 -0.000000
vn -0.006500 -0.999979 -0.000000
vn 0.000000 0.000000 1.000000
vn 0.000000 0.000000 1.000000
vn 0.000000 0.000000 -1.000000
vn 0.000000 0.000000 -1.000000
vn 0.999979 -0.006496 -0.000000
vn 0.999979 -0.006496 -0.000000
vn -0.999979 0.006494 0.000000
vn -0.999979 0.006494 0.000000
s 1
g seat stonebench
usemtl initialShadingGroup
f 1/21/1 2/22/2 6/23/3 5/24/4
f 2/22/5 1/21/1 4/25/6 3/26/7
f 3/26/8 4/25/6 7/30/9 8/29/10
f 5/24/4 6/23/11 8/29/12 7/30/9
f 1/21/1 5/24/4 7/30/9 4/25/6
s off
f 9/9/13 10/8/14 14/7/15 13/10/16
f 10/39/17 9/36/18 11/35/19 12/40/20
f 12/15/21 11/19/22 15/20/23 16/16/24
f 13/33/25 14/37/26 16/38/27 15/34/28
s 1
f 17/1/29 18/2/30 20/3/31 19/4/32
f 18/41/33 17/42/34 21/43/35 22/44/36
f 19/47/37 20/48/38 24/49/39 23/50/40
f 22/11/41 21/12/42 23/13/43 24/14/44
s off
f 13/33/45 15/34/46 11/35/47 9/36/48
s 1
f 10/45/49 12/46/50 21/43/35 17/42/34
f 19/47/37 23/50/40 16/51/51 14/52/52
f 12/15/53 16/16/54 23/13/43 21/12/42
f 14/7/55 10/8/56 17/1/29 19/4/32
f 18/2/30 2/5/5 3/6/7 20/3/31
f 2/22/2 18/27/33 22/28/36 6/23/3
f 6/17/11 22/11/41 24/14/44 8/18/12
f 20/31/38 3/26/8 8/29/10 24/32/39
g default
v -1.533676 -0.358260 -0.647225
v -1.533676 1.090037 -0.647225
v -1.104681 -0.358260 -0.647225
v -1.349228 1.090037 -0.647225
v -1.121752 -0.358260 0.565813
v -1.072842 -0.358260 0.459054
v -1.257676 1.090037 0.471641
v -1.302902 1.090037 0.579984
v -1.019297 -0.358260 -0.490789
v -1.060189 -0.358260 -0.600861
v -1.303179 1.090037 -0.601831
v -1.257676 1.090037 -0.493533
v -1.623923 -0.358260 0.469895
v -1.578100 -0.358260 0.578107
v -1.578952 1.090037 0.580128
v -1.623923 1.090037 0.471558
v -1.578952 -0.358260 -0.601948
v -1.623923 -0.358260 -0.493379
v -1.623923 1.090037 -0.493379
v -1.578952 1.090037 -0.601948
v -1.145709 -0.358260 0.589028
v -1.200212 -0.358260 0.612069
v -1.325980 1.090037 0.602895
v -1.380708 1.090037 0.625405
v -1.555181 -0.358260 0.600316
v -1.500376 -0.358260 0.621516
v -1.556163 1.090037 0.602917
v -1.501873 1.090037 0.625405
vt 0.844963 0.300920
vt 0.845296 0.590642
vt 0.652267 0.590642
vt 0.652267 0.300920
vt 0.866611 0.300920
vt 0.867015 0.590642
vt 0.630548 0.300920
vt 0.630548 0.590642
vt 0.871053 0.300920
vt 0.871574 0.590642
vt 0.621491 0.300920
vt 0.621491 0.590642
vt 0.283313 0.586924
vt 0.283862 0.876646
vt 0.090785 0.876646
vt 0.093303 0.586924
vt 0.305332 0.586924
vt 0.305526 0.876646
vt 0.071946 0.586924
vt 0.069112 0.876646
vt 0.314606 0.586924
vt 0.314606 0.876646
vt 0.064528 0.876646
vt 0.067302 0.586924
vt 0.780081 0.596695
vt 0.788981 0.605970
vt 0.797162 0.627989
vt 0.786450 0.817999
vt 0.776666 0.839355
vt 0.771874 0.844000
vt 0.760971 0.848609
vt 0.700925 0.850498
vt 0.689962 0.846257
vt 0.685377 0.841815
vt 0.676210 0.820168
vt 0.676210 0.627471
vt 0.685206 0.605753
vt 0.694264 0.596695
vt 0.644740 0.596695
vt 0.655687 0.601198
vt 0.660304 0.605781
vt 0.669351 0.627455
vt 0.669351 0.820531
vt 0.660249 0.842196
vt 0.651037 0.851276
vt 0.614139 0.851276
vt 0.605082 0.842219
vt 0.596086 0.820500
vt 0.596086 0.627471
vt 0.605082 0.605753
vt 0.609641 0.601194
vt 0.620501 0.596695
vt 0.585213 0.297011
vt 0.549106 0.586734
vt 0.524868 0.586734
vt 0.525167 0.297011
vt 0.596116 0.297011
vt 0.560054 0.586734
vt 0.514204 0.297011
vt 0.514007 0.586734
vt 0.879452 0.590642
vt 0.879452 0.300920
vt 0.916350 0.300920
vt 0.965270 0.590642
vn 0.113352 0.006360 0.993535
vn 0.093749 0.004006 0.995588
vn -0.064462 -0.004127 0.997912
vn -0.064371 -0.004127 0.997918
vn -0.999108 -0.000083 0.042237
vn -0.999103 -0.000084 0.042344
vn -0.999122 0.000000 -0.041887
vn -0.999122 0.000000 -0.041887
vn 0.000000 0.000000 -1.000000
vn 0.000000 0.000000 -1.000000
vn 0.000000 0.000000 -1.000000
vn 0.000000 0.000000 -1.000000
vn 0.989133 0.146358 -0.013969
vn 0.989070 0.146482 -0.016856
vn 0.987429 0.141724 0.069989
vn 0.987625 0.141944 0.066696
vn 0.000000 -1.000000 0.000000
vn 0.000000 -1.000000 0.000000
vn 0.000000 -1.000000 0.000000
vn 0.000000 -1.000000 0.000000
vn 0.000000 -1.000000 0.000000
vn 0.000000 -1.000000 0.000000
vn 0.000000 -1.000000 0.000000
vn 0.000000 -1.000000 0.000000
vn 0.000000 -1.000000 0.000000
vn 0.000000 -1.000000 0.000000
vn 0.000000 -1.000000 0.000000
vn 0.000000 -1.000000 0.000000
vn 0.000000 -1.000000 0.000000
vn 0.000000 -1.000000 0.000000
vn 0.495245 0.053523 0.867103
vn 0.515773 0.056192 0.854880
vn 0.877783 0.106304 0.467115
vn 0.871793 0.105394 0.478403
vn -0.886661 -0.000951 0.462420
vn -0.886724 -0.000951 0.462297
vn -0.497135 -0.002148 0.867671
vn -0.497053 -0.002148 0.867718
vn -0.707108 0.000000 -0.707106
vn -0.862546 0.000000 -0.505978
vn -0.862546 0.000000 -0.505978
vn -0.707108 0.000000 -0.707106
vn 0.854383 0.142183 -0.499813
vn 0.864551 0.143780 -0.481539
vn 0.706770 0.118725 -0.697410
vn 0.706770 0.118725 -0.697410
vn 0.000000 1.000000 0.000000
vn 0.000000 1.000000 0.000000
vn 0.000000 1.000000 0.000000
vn 0.000000 1.000000 0.000000
vn 0.000000 1.000000 0.000000
vn 0.000000 1.000000 0.000000
vn 0.000000 1.000000 0.000000
vn 0.000000 1.000000 0.000000
vn 0.000000 1.000000 0.000000
vn 0.000000 1.000000 0.000000
vn 0.000000 1.000000 0.000000
vn 0.000000 1.000000 0.000000
vn 0.000000 1.000000 0.000000
vn 0.000000 1.000000 0.000000
s 1
g stonebench tempLeg
usemtl initialShadingGroup
f 46/105/57 48/106/58 52/107/59 50/108/60
f 37/53/61 40/54/62 43/55/63 42/56/64
s off
f 25/113/65 26/114/66 28/115/67 27/116/68
s 1
f 33/65/69 36/66/70 31/67/71 30/68/72
s off
f 27/77/73 34/78/74 33/79/75 30/80/76 29/81/77 45/82/78 46/83/79 50/84/80 49/85/81 38/86/82 37/87/83 42/88/84 41/89/85 25/90/86
s 1
f 47/75/87 45/76/88 29/71/89 32/72/90
f 39/58/91 38/57/92 49/61/93 51/62/94
f 25/63/95 41/59/96 44/60/97 26/64/98
f 35/70/99 34/69/100 27/73/101 28/74/102
f 29/71/89 30/68/72 31/67/71 32/72/90
f 33/65/69 34/69/100 35/70/99 36/66/70
f 37/53/61 38/57/92 39/58/91 40/54/62
f 41/59/96 42/56/64 43/55/63 44/60/97
s off
f 48/91/103 47/92/104 32/93/105 31/94/106 36/95/107 35/96/108 28/97/109 26/98/110 44/99/111 43/100/112 40/101/113 39/102/114 51/103/115 52/104/116
s 1
f 46/105/57 45/109/88 47/110/87 48/106/58
f 49/111/93 50/108/60 52/107/59 51/112/94
g default
v 1.322038 -0.407425 -0.587634
v 1.273148 -0.408807 -0.480874
v 1.417014 1.044132 -0.493461
v 1.462222 1.045409 -0.601804
v 1.219624 -0.410318 0.468969
v 1.260500 -0.409164 0.579041
v 1.462499 1.045417 0.580011
v 1.417014 1.044132 0.471713
v 1.824010 -0.393246 -0.491715
v 1.778204 -0.394540 -0.599927
v 1.738163 1.053204 -0.601948
v 1.783116 1.054473 -0.493378
v 1.779056 -0.394516 0.580128
v 1.824010 -0.393246 0.471558
v 1.783116 1.054473 0.471558
v 1.738163 1.053204 0.580128
v 1.345986 -0.406749 -0.610848
v 1.400467 -0.405210 -0.633889
v 1.485291 1.046061 -0.624715
v 1.539997 1.047606 -0.647225
v 1.755295 -0.395187 -0.622136
v 1.700511 -0.396735 -0.643336
v 1.715383 1.052560 -0.624737
v 1.661114 1.051027 -0.647225
v 1.756223 -0.395161 0.602971
v 1.702084 -0.396690 0.625405
v 1.715329 1.052559 0.602971
v 1.661191 1.051029 0.625405
v 1.282739 -0.408536 0.602225
v 1.337325 -0.406994 0.625405
v 1.485785 1.046075 0.602975
v 1.540691 1.047626 0.625405
vt 0.562260 0.589936
vt 0.562592 0.878601
vt 0.370190 0.878601
vt 0.370190 0.589936
vt 0.583837 0.589678
vt 0.584240 0.878348
vt 0.348543 0.589683
vt 0.348543 0.878348
vt 0.588265 0.589549
vt 0.588784 0.878220
vt 0.343988 0.878219
vt 0.343988 0.589554
vt 0.913825 0.003872
vt 0.914373 0.293879
vt 0.721924 0.293879
vt 0.724433 0.004173
vt 0.935773 0.004102
vt 0.935966 0.294135
vt 0.703146 0.004449
vt 0.700321 0.294133
vt 0.940396 0.004227
vt 0.940545 0.294266
vt 0.695753 0.294263
vt 0.698518 0.004584
vt 0.827758 0.851119
vt 0.816850 0.846630
vt 0.812251 0.842062
vt 0.803236 0.820459
vt 0.803236 0.628011
vt 0.812306 0.606417
vt 0.816949 0.601838
vt 0.827897 0.597366
vt 0.851923 0.597366
vt 0.862718 0.601839
vt 0.867271 0.606393
vt 0.876235 0.628041
vt 0.876235 0.820443
vt 0.867271 0.842091
vt 0.862729 0.846635
vt 0.851908 0.851119
vt 0.900967 0.960718
vt 0.890083 0.956096
vt 0.885648 0.951473
vt 0.877498 0.929526
vt 0.888170 0.740134
vt 0.897919 0.718847
vt 0.902693 0.714218
vt 0.913557 0.709624
vt 0.973383 0.707740
vt 0.984307 0.711967
vt 0.988875 0.716395
vt 0.998008 0.737972
vt 0.998008 0.930042
vt 0.989045 0.951690
vt 0.984492 0.956245
vt 0.973697 0.960718
vt 0.618675 0.294541
vt 0.646496 0.004860
vt 0.670646 0.004178
vt 0.678501 0.292851
vt 0.607811 0.294848
vt 0.635588 0.005168
vt 0.689425 0.292542
vt 0.681467 0.003872
vt 0.589805 0.004280
vt 0.581651 0.292945
vt 0.557624 0.292266
vt 0.517074 0.002225
vt 0.600600 0.004585
vt 0.592446 0.293250
vt 0.506190 0.001918
vt 0.546676 0.291957
vn -0.113487 0.003157 -0.993535
vn -0.093825 0.001357 -0.995588
vn 0.064552 -0.002305 -0.997912
vn 0.064462 -0.002308 -0.997918
vn 0.998712 0.028127 -0.042238
vn 0.998707 0.028127 -0.042344
vn 0.998724 0.028211 0.041888
vn 0.998724 0.028211 0.041888
vn 0.075319 0.002128 0.997157
vn 0.075319 0.002128 0.997157
vn -0.064809 0.009014 0.997857
vn -0.090391 0.012572 0.995827
vn -0.992871 0.118371 0.013969
vn -0.992811 0.118497 0.016855
vn -0.991037 0.113787 -0.069989
vn -0.991239 0.114001 -0.066696
vn -0.496558 0.039519 -0.867104
vn -0.517154 0.041606 -0.854881
vn -0.880435 0.081477 -0.467114
vn -0.874422 0.080737 -0.478402
vn 0.886334 0.024085 -0.462420
vn 0.886398 0.024087 -0.462298
vn 0.496999 0.011890 -0.867670
vn 0.496917 0.011887 -0.867717
vn 0.506660 0.014312 0.862027
vn 0.506660 0.014312 0.862027
vn 0.888299 0.025092 0.458580
vn 0.888299 0.025092 0.458580
vn -0.885399 0.121429 0.448691
vn -0.892145 0.122300 0.434880
vn -0.523481 0.072683 0.848932
vn -0.496350 0.068934 0.865381
vn -0.028236 0.999601 0.000000
vn -0.028236 0.999601 0.000000
vn -0.028236 0.999601 0.000000
vn -0.028236 0.999601 0.000000
vn -0.028236 0.999601 0.000000
vn -0.028236 0.999601 0.000000
vn -0.028236 0.999601 0.000000
vn -0.028236 0.999601 0.000000
vn -0.028236 0.999601 0.000000
vn -0.028236 0.999601 0.000000
vn -0.028236 0.999601 0.000000
vn -0.028236 0.999601 0.000000
vn -0.028236 0.999601 0.000000
vn -0.028236 0.999601 0.000000
vn -0.028236 0.999601 0.000000
vn -0.028236 0.999601 0.000000
vn 0.028236 -0.999601 0.000000
vn 0.028236 -0.999601 0.000000
vn 0.028236 -0.999601 0.000000
vn 0.028236 -0.999601 0.000000
vn 0.028236 -0.999601 0.000000
vn 0.028236 -0.999601 0.000000
vn 0.028236 -0.999601 0.000000
vn 0.028236 -0.999601 0.000000
vn 0.028236 -0.999601 0.000000
vn 0.028236 -0.999601 0.000000
vn 0.028236 -0.999601 0.000000
vn 0.028236 -0.999601 0.000000
vn 0.028236 -0.999601 0.000000
vn 0.028236 -0.999601 0.000000
vn 0.028236 -0.999601 0.000000
vn 0.028236 -0.999601 0.000000
s 1
g stonebench tempLeg2
usemtl initialShadingGroup
f 70/173/117 72/174/118 76/175/119 74/176/120
f 61/117/121 64/118/122 67/119/123 66/120/124
f 78/181/125 80/182/126 84/183/127 82/184/128
f 57/129/129 60/130/130 55/131/131 54/132/132
f 71/139/133 69/140/134 53/135/135 56/136/136
f 63/122/137 62/121/138 73/125/139 75/126/140
f 79/127/141 77/128/142 65/123/143 68/124/144
f 59/134/145 58/133/146 81/137/147 83/138/148
f 53/135/135 54/132/132 55/131/131 56/136/136
f 57/129/129 58/133/146 59/134/145 60/130/130
f 61/117/121 62/121/138 63/122/137 64/118/122
f 65/123/143 66/120/124 67/119/123 68/124/144
s off
f 72/141/149 71/142/150 56/143/151 55/144/152 60/145/153 59/146/154 83/147/155 84/148/156 80/149/157 79/150/158 68/151/159 67/152/160 64/153/161 63/154/162 75/155/163 76/156/164
s 1
f 70/173/117 69/177/134 71/178/133 72/174/118
f 73/179/139 74/176/120 76/175/119 75/180/140
s off
f 82/157/165 81/158/166 58/159/167 57/160/168 54/161/169 53/162/170 69/163/171 70/164/172 74/165/173 73/166/174 62/167/175 61/168/176 66/169/177 65/170/178 77/171/179 78/172/180
s 1
f 78/181/125 77/185/142 79/186/141 80/182/126
f 81/187/147 82/184/128 84/183/127 83/188/148
