# This file uses centimeters as units for non-parametric coordinates.

v 1.804322 3.594420 6.609151
v 7.549708 3.594420 6.609151
v 1.804322 4.086586 6.609151
v 7.549708 4.086586 6.609151
v 1.804322 4.086586 -6.609151
v 7.549708 4.086586 -6.609151
v 1.804322 3.594420 -6.609151
v 7.549708 3.594420 -6.609151
v 1.981934 4.086586 -6.609151
v 1.981934 3.594420 -6.609151
v 1.981934 3.594420 6.609151
v 1.981934 4.086586 6.609151
v 1.804322 4.086586 -6.457550
v 1.804322 3.594420 -6.457550
v 7.549708 3.594420 -6.457550
v 7.549708 4.086586 -6.457550
v 1.981934 4.086586 -6.457550
v 1.804322 3.697176 -6.609151
v 1.804322 3.697176 -6.457550
v 1.804322 3.697176 6.609151
v 1.981934 3.697176 6.609151
v 7.549708 3.697176 6.609151
v 7.549708 3.697176 -6.457550
v 7.549708 3.697176 -6.609151
v 1.981934 3.697176 -6.609151
v 1.981934 3.966591 -6.609151
v 1.804322 3.966591 -6.609151
v 1.804322 3.966591 -6.457550
v 1.804322 3.966591 6.609151
v 1.981934 3.966591 6.609151
v 7.549708 3.966591 6.609151
v 7.549708 3.966591 -6.457550
v 7.549708 3.966591 -6.609151
v 7.337110 3.966591 -6.609151
v 7.337110 4.086586 -6.609151
v 7.337110 4.086586 -6.457550
v 7.337110 4.086586 6.609151
v 7.337110 3.966591 6.609151
v 7.337110 3.697176 6.609151
v 7.337110 3.594420 6.609151
v 7.337110 3.594420 -6.609151
v 7.337110 3.697176 -6.609151
v 7.549708 3.966591 6.415243
v 7.549708 4.086586 6.415243
v 7.337110 4.086586 6.415243
v 1.981934 4.086586 6.415243
v 1.804322 4.086586 6.415243
v 1.804322 3.966591 6.415243
v 1.804322 3.697176 6.415243
v 1.804322 3.594420 6.415243
v 7.549708 3.594420 6.415243
v 7.549708 3.697176 6.415243
v 1.828548 4.033859 6.361136
v 2.004672 4.033859 6.361136
v 2.004672 4.033859 6.553440
v 1.828548 4.033859 6.553440
v 7.314698 4.033859 6.553440
v 7.314698 4.033859 6.361136
v 7.525467 4.033859 6.361136
v 7.525467 4.033859 6.553440
v 1.828548 4.033859 -6.553440
v 2.004672 4.033859 -6.553440
v 2.004672 4.033859 -6.403079
v 1.828548 4.033859 -6.403079
v 7.314698 4.033859 -6.403079
v 7.525467 4.033859 -6.403079
v 7.314698 4.033859 -6.553440
v 7.525467 4.033859 -6.553440
vt 0.250890 0.190410
vt 0.258587 0.190407
vt 0.258606 0.251112
vt 0.250909 0.251114
vt 0.258607 0.254765
vt 0.250910 0.254767
vt 0.250988 0.500079
vt 0.258685 0.500076
vt 0.258704 0.560781
vt 0.251007 0.560783
vt 0.251144 0.994355
vt 0.258841 0.994353
vt 0.258843 0.998006
vt 0.251146 0.998008
vt 0.499854 0.190331
vt 0.503507 0.190330
vt 0.503527 0.251034
vt 0.499874 0.251035
vt 0.247237 0.190411
vt 0.247256 0.251115
vt 0.490741 0.500003
vt 0.499952 0.500000
vt 0.499972 0.560705
vt 0.490760 0.560707
vt 0.490898 0.997932
vt 0.490897 0.994279
vt 0.500109 0.994276
vt 0.500110 0.997929
vt 0.490662 0.251038
vt 0.490643 0.190334
vt 0.490663 0.254691
vt 0.499875 0.254688
vt 0.001925 0.190489
vt 0.004780 0.190488
vt 0.004800 0.251192
vt 0.001945 0.251193
vt 0.251067 0.749043
vt 0.258764 0.749041
vt 0.258765 0.751896
vt 0.251068 0.751899
vt 0.500032 0.751820
vt 0.490820 0.751823
vt 0.490820 0.748968
vt 0.500031 0.748965
vt 0.745983 0.250958
vt 0.745964 0.190253
vt 0.748819 0.190252
vt 0.748838 0.250957
vt 0.490740 0.497148
vt 0.499952 0.497145
vt 0.250987 0.497224
vt 0.258684 0.497221
vt 0.001866 0.002228
vt 0.004721 0.002228
vt 0.004737 0.054209
vt 0.001882 0.054210
vt 0.247177 0.002151
vt 0.250830 0.002150
vt 0.250847 0.054131
vt 0.247194 0.054133
vt 0.258527 0.002147
vt 0.258544 0.054129
vt 0.499811 0.054053
vt 0.490600 0.054056
vt 0.490583 0.002074
vt 0.499795 0.002071
vt 0.503448 0.002070
vt 0.503464 0.054051
vt 0.748776 0.053974
vt 0.745921 0.053975
vt 0.745904 0.001993
vt 0.748759 0.001992
vt 0.490803 0.696986
vt 0.500015 0.696983
vt 0.500031 0.748965
vt 0.490820 0.748968
vt 0.251050 0.697062
vt 0.258747 0.697059
vt 0.258764 0.749041
vt 0.251067 0.749043
vt 0.258843 0.998006
vt 0.251146 0.998008
vt 0.251144 0.994355
vt 0.500109 0.994276
vt 0.500110 0.997929
vt 0.490898 0.997932
vt 0.251068 0.751899
vt 0.500032 0.751820
vn 0.000000 0.000000 1.000000
vn 0.000000 0.000000 1.000000
vn 0.000000 0.000000 1.000000
vn 0.000000 0.000000 1.000000
vn 0.000000 1.000000 0.000000
vn 0.000000 1.000000 0.000000
vn 0.000000 1.000000 0.000000
vn 0.000000 1.000000 0.000000
vn 0.000000 0.000000 -1.000000
vn 0.000000 0.000000 -1.000000
vn 0.000000 0.000000 -1.000000
vn 0.000000 0.000000 -1.000000
vn 0.000000 -1.000000 0.000000
vn 0.000000 -1.000000 0.000000
vn 0.000000 -1.000000 0.000000
vn 0.000000 -1.000000 0.000000
vn 1.000000 0.000000 0.000000
vn 1.000000 0.000000 0.000000
vn 1.000000 0.000000 0.000000
vn 1.000000 0.000000 0.000000
vn -1.000000 0.000000 0.000000
vn -1.000000 0.000000 0.000000
vn -1.000000 0.000000 0.000000
vn -1.000000 0.000000 0.000000
vn 0.000000 0.000000 -1.000000
vn 0.000000 0.000000 -1.000000
vn 0.000000 0.000000 -1.000000
vn 0.000000 0.000000 -1.000000
vn 0.000000 -1.000000 0.000000
vn 0.000000 -1.000000 0.000000
vn 0.000000 -1.000000 0.000000
vn 0.000000 -1.000000 0.000000
vn 0.000000 0.000000 1.000000
vn 0.000000 0.000000 1.000000
vn 0.000000 0.000000 1.000000
vn 0.000000 0.000000 1.000000
vn 0.000000 1.000000 0.000000
vn 0.000000 1.000000 0.000000
vn 0.000000 1.000000 0.000000
vn 0.000000 1.000000 0.000000
vn -1.000000 0.000000 0.000000
vn -1.000000 0.000000 0.000000
vn -1.000000 0.000000 0.000000
vn -1.000000 0.000000 0.000000
vn 0.000000 -1.000000 0.000000
vn 0.000000 -1.000000 0.000000
vn 0.000000 -1.000000 0.000000
vn 0.000000 -1.000000 0.000000
vn 0.000000 -1.000000 0.000000
vn 0.000000 -1.000000 0.000000
vn 0.000000 -1.000000 0.000000
vn 0.000000 -1.000000 0.000000
vn 1.000000 0.000000 0.000000
vn 1.000000 0.000000 0.000000
vn 1.000000 0.000000 0.000000
vn 1.000000 0.000000 0.000000
vn 0.000000 1.000000 0.000000
vn 0.000000 1.000000 0.000000
vn 0.000000 1.000000 0.000000
vn 0.000000 1.000000 0.000000
vn 0.000000 1.000000 0.000000
vn 0.000000 1.000000 0.000000
vn 0.000000 1.000000 0.000000
vn 0.000000 1.000000 0.000000
vn -1.000000 0.000000 0.000000
vn -1.000000 0.000000 0.000000
vn -1.000000 0.000000 0.000000
vn -1.000000 0.000000 0.000000
vn -1.000000 0.000000 0.000000
vn -1.000000 0.000000 0.000000
vn -1.000000 0.000000 0.000000
vn -1.000000 0.000000 0.000000
vn 0.000000 0.000000 1.000000
vn 0.000000 0.000000 1.000000
vn 0.000000 0.000000 1.000000
vn 0.000000 0.000000 1.000000
vn 0.000000 0.000000 1.000000
vn 0.000000 0.000000 1.000000
vn 0.000000 0.000000 1.000000
vn 0.000000 0.000000 1.000000
vn 1.000000 0.000000 0.000000
vn 1.000000 0.000000 0.000000
vn 1.000000 0.000000 0.000000
vn 1.000000 0.000000 0.000000
vn 1.000000 0.000000 0.000000
vn 1.000000 0.000000 0.000000
vn 1.000000 0.000000 0.000000
vn 1.000000 0.000000 0.000000
vn 0.000000 0.000000 -1.000000
vn 0.000000 0.000000 -1.000000
vn 0.000000 0.000000 -1.000000
vn 0.000000 0.000000 -1.000000
vn 0.000000 0.000000 -1.000000
vn 0.000000 0.000000 -1.000000
vn 0.000000 0.000000 -1.000000
vn 0.000000 0.000000 -1.000000
vn 0.000000 0.000000 -1.000000
vn 0.000000 0.000000 -1.000000
vn 0.000000 0.000000 -1.000000
vn 0.000000 0.000000 -1.000000
vn -1.000000 0.000000 0.000000
vn -1.000000 0.000000 0.000000
vn -1.000000 0.000000 0.000000
vn -1.000000 0.000000 0.000000
vn -1.000000 0.000000 0.000000
vn -1.000000 0.000000 0.000000
vn -1.000000 0.000000 0.000000
vn -1.000000 0.000000 0.000000
vn 0.000000 0.000000 1.000000
vn 0.000000 0.000000 1.000000
vn 0.000000 0.000000 1.000000
vn 0.000000 0.000000 1.000000
vn 0.000000 0.000000 1.000000
vn 0.000000 0.000000 1.000000
vn 0.000000 0.000000 1.000000
vn 0.000000 0.000000 1.000000
vn 1.000000 0.000000 0.000000
vn 1.000000 0.000000 0.000000
vn 1.000000 0.000000 0.000000
vn 1.000000 0.000000 0.000000
vn 1.000000 0.000000 0.000000
vn 1.000000 0.000000 0.000000
vn 1.000000 0.000000 0.000000
vn 1.000000 0.000000 0.000000
vn 0.000000 0.000000 -1.000000
vn 0.000000 0.000000 -1.000000
vn 0.000000 0.000000 -1.000000
vn 0.000000 0.000000 -1.000000
vn 0.000000 0.000000 -1.000000
vn 0.000000 0.000000 -1.000000
vn 0.000000 0.000000 -1.000000
vn 0.000000 0.000000 -1.000000
vn 0.000000 1.000000 0.000000
vn 0.000000 1.000000 0.000000
vn 0.000000 1.000000 0.000000
vn 0.000000 1.000000 0.000000
vn 0.000000 1.000000 0.000000
vn 0.000000 1.000000 0.000000
vn 0.000000 1.000000 0.000000
vn 0.000000 1.000000 0.000000
vn 0.000000 0.000000 1.000000
vn 0.000000 0.000000 1.000000
vn 0.000000 0.000000 1.000000
vn 0.000000 0.000000 1.000000
vn 0.000000 0.000000 1.000000
vn 0.000000 0.000000 1.000000
vn 0.000000 0.000000 1.000000
vn 0.000000 0.000000 1.000000
vn 0.000000 0.000000 1.000000
vn 0.000000 0.000000 1.000000
vn 0.000000 0.000000 1.000000
vn 0.000000 0.000000 1.000000
vn 0.000000 -1.000000 0.000000
vn 0.000000 -1.000000 0.000000
vn 0.000000 -1.000000 0.000000
vn 0.000000 -1.000000 0.000000
vn 0.000000 -1.000000 0.000000
vn 0.000000 -1.000000 0.000000
vn 0.000000 -1.000000 0.000000
vn 0.000000 -1.000000 0.000000
vn 0.000000 0.000000 -1.000000
vn 0.000000 0.000000 -1.000000
vn 0.000000 0.000000 -1.000000
vn 0.000000 0.000000 -1.000000
vn 0.000000 0.000000 -1.000000
vn 0.000000 0.000000 -1.000000
vn 0.000000 0.000000 -1.000000
vn 0.000000 0.000000 -1.000000
vn 1.000000 0.000000 0.000000
vn 1.000000 0.000000 0.000000
vn 1.000000 0.000000 0.000000
vn 1.000000 0.000000 0.000000
vn 0.000000 1.000000 0.000000
vn 0.000000 1.000000 0.000000
vn 0.000000 1.000000 0.000000
vn 0.000000 1.000000 0.000000
vn 0.000000 1.000000 0.000000
vn 0.000000 1.000000 0.000000
vn 0.000000 1.000000 0.000000
vn 0.000000 1.000000 0.000000
vn 0.000000 1.000000 0.000000
vn 0.000000 1.000000 0.000000
vn 0.000000 1.000000 0.000000
vn 0.000000 1.000000 0.000000
vn -1.000000 0.000000 0.000000
vn -1.000000 0.000000 0.000000
vn -1.000000 0.000000 0.000000
vn -1.000000 0.000000 0.000000
vn -1.000000 0.000000 0.000000
vn -1.000000 0.000000 0.000000
vn -1.000000 0.000000 0.000000
vn -1.000000 0.000000 0.000000
vn -1.000000 0.000000 0.000000
vn -1.000000 0.000000 0.000000
vn -1.000000 0.000000 0.000000
vn -1.000000 0.000000 0.000000
vn 0.000000 -1.000000 0.000000
vn 0.000000 -1.000000 0.000000
vn 0.000000 -1.000000 0.000000
vn 0.000000 -1.000000 0.000000
vn 0.000000 -1.000000 0.000000
vn 0.000000 -1.000000 0.000000
vn 0.000000 -1.000000 0.000000
vn 0.000000 -1.000000 0.000000
vn 0.000000 -1.000000 0.000000
vn 0.000000 -1.000000 0.000000
vn 0.000000 -1.000000 0.000000
vn 0.000000 -1.000000 0.000000
vn 1.000000 0.000000 0.000000
vn 1.000000 0.000000 0.000000
vn 1.000000 0.000000 0.000000
vn 1.000000 0.000000 0.000000
vn 1.000000 0.000000 0.000000
vn 1.000000 0.000000 0.000000
vn 1.000000 0.000000 0.000000
vn 1.000000 0.000000 0.000000
vn 0.000000 -0.125799 -0.992056
vn 0.000000 -0.125799 -0.992056
vn 0.000000 -0.125799 -0.992056
vn 0.000000 -0.125799 -0.992056
vn 0.998484 -0.055034 0.000000
vn 0.998484 -0.055034 0.000000
vn 0.998484 -0.055034 0.000000
vn 0.998484 -0.055034 0.000000
vn -0.998485 -0.055032 0.000000
vn -0.998485 -0.055032 0.000000
vn -0.998485 -0.055032 0.000000
vn -0.998485 -0.055032 0.000000
vn 0.000000 -0.125799 -0.992056
vn 0.000000 -0.125799 -0.992056
vn 0.000000 -0.125799 -0.992056
vn 0.000000 -0.125799 -0.992056
vn 0.000000 -0.125799 0.992056
vn 0.000000 -0.125799 0.992056
vn 0.000000 -0.125799 0.992056
vn 0.000000 -0.125799 0.992056
vn 0.998484 -0.055034 0.000000
vn 0.998484 -0.055034 0.000000
vn 0.998484 -0.055034 0.000000
vn 0.998484 -0.055034 0.000000
vn 0.000000 -0.125799 0.992056
vn 0.000000 -0.125799 0.992056
vn 0.000000 -0.125799 0.992056
vn 0.000000 -0.125799 0.992056
vn -0.998485 -0.055032 0.000000
vn -0.998485 -0.055032 0.000000
vn -0.998485 -0.055032 0.000000
vn -0.998485 -0.055032 0.000000
vn 0.000000 -0.125800 -0.992056
vn 0.000000 -0.125800 -0.992056
vn 0.000000 -0.125800 -0.992056
vn 0.000000 -0.125800 -0.992056
vn 0.000000 -0.125800 0.992056
vn 0.000000 -0.125800 0.992056
vn 0.000000 -0.125800 0.992056
vn 0.000000 -0.125800 0.992056
vn 0.998484 -0.055034 0.000000
vn 0.998484 -0.055034 0.000000
vn 0.998484 -0.055034 0.000000
vn 0.998484 -0.055034 0.000000
vn -0.998485 -0.055032 0.000000
vn -0.998485 -0.055032 0.000000
vn -0.998485 -0.055032 0.000000
vn -0.998485 -0.055032 0.000000
s off
f 29/1/1 30/2/2 12/3/3 3/4/4
f 3/4/5 12/3/6 46/5/7 47/6/8
f 5/7/9 9/8/10 26/9/11 27/10/12
f 53/11/13 54/12/14 55/13/15 56/14/16
f 31/15/17 43/16/18 44/17/19 4/18/20
f 48/19/21 29/1/22 3/4/23 47/20/24
f 35/21/25 6/22/26 33/23/27 34/24/28
f 57/25/29 58/26/30 59/27/31 60/28/32
f 37/29/33 38/30/34 31/15/35 4/18/36
f 45/31/37 37/29/38 4/18/39 44/32/40
f 27/33/41 28/34/42 13/35/43 5/36/44
f 61/37/45 62/38/46 63/39/47 64/40/48
f 66/41/49 65/42/50 67/43/51 68/44/52
f 16/45/53 32/46/54 33/47/55 6/48/56
f 35/21/57 36/49/58 16/50/59 6/22/60
f 13/51/61 17/52/62 9/8/63 5/7/64
f 7/53/65 14/54/66 19/55/67 18/56/68
f 50/57/69 1/58/70 20/59/71 49/60/72
f 1/58/73 11/61/74 21/62/75 20/59/76
f 22/63/77 39/64/78 40/65/79 2/66/80
f 2/66/81 51/67/82 52/68/83 22/63/84
f 24/69/85 23/70/86 15/71/87 8/72/88
f 42/73/89 24/74/90 8/75/91 41/76/92
f 18/77/93 25/78/94 10/79/95 7/80/96
f 27/10/97 26/9/98 25/78/99 18/77/100
f 18/56/101 19/55/102 28/34/103 27/33/104
f 49/60/105 20/59/106 29/1/107 48/19/108
f 20/59/109 21/62/110 30/2/111 29/1/112
f 31/15/113 38/30/114 39/64/115 22/63/116
f 22/63/117 52/68/118 43/16/119 31/15/120
f 33/47/121 32/46/122 23/70/123 24/69/124
f 42/73/125 34/24/126 33/23/127 24/74/128
f 9/8/129 35/21/130 34/24/131 26/9/132
f 9/8/133 17/52/134 36/49/135 35/21/136
f 46/5/137 12/3/138 37/29/139 45/31/140
f 12/3/141 30/2/142 38/30/143 37/29/144
f 39/64/145 38/30/146 30/2/147 21/62/148
f 40/65/149 39/64/150 21/62/151 11/61/152
f 55/13/153 54/12/154 58/26/155 57/25/156
f 67/43/157 65/42/158 63/39/159 62/38/160
f 25/78/161 42/73/162 41/76/163 10/79/164
f 26/9/165 34/24/166 42/73/167 25/78/168
f 43/16/169 32/46/170 16/45/171 44/17/172
f 36/49/173 45/31/174 44/32/175 16/50/176
f 17/52/177 46/5/178 45/31/179 36/49/180
f 47/6/181 46/5/182 17/52/183 13/51/184
f 28/34/185 48/19/186 47/20/187 13/35/188
f 19/55/189 49/60/190 48/19/191 28/34/192
f 14/54/193 50/57/194 49/60/195 19/55/196
f 64/40/197 63/39/198 54/12/199 53/11/200
f 58/26/201 54/12/202 63/39/203 65/42/204
f 59/27/205 58/26/206 65/42/207 66/41/208
f 52/68/209 51/67/210 15/71/211 23/70/212
f 43/16/213 52/68/214 23/70/215 32/46/216
f 11/81/217 1/82/218 56/14/219 55/13/220
f 1/82/221 50/83/222 53/11/223 56/14/224
f 51/84/225 2/85/226 60/28/227 59/27/228
f 2/85/229 40/86/230 57/25/231 60/28/232
f 7/80/233 10/79/234 62/38/235 61/37/236
f 14/87/237 7/80/238 61/37/239 64/40/240
f 41/76/241 8/75/242 68/44/243 67/43/244
f 8/75/245 15/88/246 66/41/247 68/44/248
f 40/86/249 11/81/250 55/13/251 57/25/252
f 10/79/253 41/76/254 67/43/255 62/38/256
f 50/83/257 14/87/258 64/40/259 53/11/260
f 15/88/261 51/84/262 59/27/263 66/41/264
